<svg id="svg" version="1.1" xmlns="http://www.w3.org/2000/svg" xmlns:xlink="http://www.w3.org/1999/xlink" width="400" height="400" viewBox="0, 0, 400,400"><g id="svgg"><path id="path0" d="M0.000 200.000 L 0.000 400.000 200.000 400.000 L 400.000 400.000 400.000 200.000 L 400.000 0.000 200.000 0.000 L 0.000 0.000 0.000 200.000 M197.800 68.008 C 212.092 68.491,225.236 69.254,242.130 70.582 L 249.260 71.142 254.530 74.121 C 257.428 75.759,263.490 79.131,268.000 81.613 C 277.247 86.704,289.220 93.577,294.600 96.884 C 296.580 98.102,301.821 101.195,306.247 103.759 C 319.343 111.345,318.697 112.314,301.716 110.560 C 294.005 109.763,294.829 108.982,293.243 118.600 C 293.062 119.700,292.633 122.040,292.290 123.800 C 290.866 131.108,290.704 132.732,291.195 134.777 C 291.610 136.511,291.571 136.951,290.852 138.575 C 289.904 140.718,290.246 142.244,292.442 145.665 C 294.554 148.957,293.122 150.856,290.205 148.631 C 288.467 147.305,287.977 147.348,286.994 148.915 C 285.437 151.395,283.600 150.460,283.600 147.187 C 283.600 146.042,283.571 146.027,281.500 146.113 C 278.227 146.249,278.303 144.993,281.761 141.765 C 284.388 139.312,284.400 139.292,284.400 137.123 C 284.400 135.230,284.576 134.738,285.742 133.372 C 286.737 132.206,287.143 131.283,287.315 129.800 C 287.750 126.050,288.699 120.203,289.134 118.600 C 290.309 114.270,290.892 109.904,290.342 109.555 C 289.591 109.080,279.304 109.107,279.009 109.586 C 278.526 110.366,276.074 119.217,274.222 126.862 C 271.441 138.339,271.977 137.912,259.800 138.359 C 251.552 138.662,250.836 138.879,250.729 141.114 C 250.632 143.126,250.673 143.542,251.156 145.432 C 251.446 146.564,251.446 147.728,251.157 149.232 C 250.928 150.424,250.754 151.997,250.772 152.727 C 250.789 153.456,250.542 154.315,250.222 154.635 C 249.804 155.053,249.702 155.750,249.860 157.109 C 250.067 158.881,249.989 159.092,248.614 160.459 L 247.148 161.918 248.063 162.559 C 248.566 162.912,249.205 163.200,249.481 163.200 C 250.086 163.200,250.585 164.940,250.239 165.842 C 250.061 166.307,249.708 166.413,248.962 166.226 C 247.749 165.922,246.289 166.297,246.618 166.829 C 246.744 167.033,247.537 167.200,248.381 167.200 C 250.027 167.200,250.482 167.714,249.973 169.000 C 249.799 169.440,249.644 170.469,249.628 171.286 C 249.594 173.112,249.109 173.399,245.400 173.792 C 240.324 174.329,238.050 174.188,236.788 173.255 C 236.159 172.789,235.386 172.507,235.071 172.628 C 234.696 172.772,234.410 172.495,234.242 171.824 C 233.767 169.933,231.352 170.833,231.125 172.986 C 230.711 176.914,209.967 175.049,207.859 170.893 C 207.040 169.279,206.596 153.366,207.219 148.002 C 208.042 140.928,205.794 137.631,201.621 139.789 C 199.170 141.057,198.635 143.268,199.019 150.551 C 199.206 154.098,199.368 161.828,199.379 167.730 L 199.400 178.459 200.633 179.564 C 201.627 180.455,203.189 180.992,208.703 182.342 C 212.464 183.262,216.293 184.280,217.213 184.604 C 218.132 184.929,219.270 185.116,219.742 185.021 C 223.857 184.191,230.734 184.396,231.907 185.383 C 233.430 186.665,234.421 186.670,235.525 185.400 C 240.599 179.564,254.671 197.110,252.246 206.249 C 251.717 208.243,250.639 217.359,250.786 218.600 C 251.252 222.542,251.180 232.903,250.654 237.498 C 250.245 241.069,250.018 246.650,250.006 253.400 C 249.973 271.889,250.042 271.121,248.473 270.623 C 248.040 270.486,247.467 269.845,247.200 269.200 C 246.333 267.108,244.382 267.285,242.489 269.627 C 241.266 271.140,238.675 271.557,236.330 270.619 C 234.758 269.990,234.541 269.990,232.877 270.626 C 231.328 271.217,230.828 271.239,228.966 270.792 C 227.515 270.444,225.609 270.366,223.014 270.548 C 220.006 270.760,219.007 270.693,218.298 270.235 C 216.746 269.231,209.332 269.843,208.271 271.063 C 206.504 273.094,203.459 273.110,201.327 271.097 C 200.283 270.112,199.853 269.948,198.927 270.186 C 196.893 270.708,192.641 270.674,191.520 270.127 C 190.079 269.424,189.104 269.463,187.680 270.280 C 186.626 270.885,186.311 270.899,184.814 270.405 C 183.402 269.939,182.930 269.936,181.867 270.386 C 181.093 270.713,178.808 270.946,176.000 270.985 C 173.470 271.019,170.590 271.183,169.600 271.348 C 168.323 271.561,167.286 271.465,166.031 271.018 C 164.564 270.495,163.871 270.464,161.971 270.838 C 159.129 271.397,157.314 270.892,156.057 269.192 C 154.856 267.567,152.964 267.516,152.365 269.092 C 151.845 270.459,151.336 270.786,149.716 270.794 C 146.678 270.808,145.834 267.472,148.209 264.842 L 149.619 263.282 148.608 260.186 C 147.171 255.782,146.903 249.253,147.946 244.027 C 148.587 240.812,148.668 239.240,148.448 234.200 C 147.840 220.232,149.390 211.729,152.974 209.381 C 155.874 207.480,172.177 206.650,179.432 208.032 C 181.835 208.490,185.029 209.096,186.532 209.378 C 193.016 210.596,194.003 212.733,195.241 228.235 C 195.513 231.644,195.930 234.695,196.168 235.016 C 196.707 235.744,201.881 235.240,202.394 234.410 C 203.182 233.134,204.701 220.410,204.168 219.548 C 204.057 219.369,203.802 216.333,203.600 212.801 C 202.915 200.799,201.391 200.162,172.600 199.837 C 152.865 199.615,148.724 197.567,147.638 187.493 C 147.297 184.334,147.778 174.589,148.432 171.400 C 148.657 170.300,149.003 167.240,149.199 164.600 C 149.540 160.022,149.766 158.002,151.006 148.400 C 151.304 146.090,151.658 142.670,151.792 140.800 C 153.058 123.164,159.240 116.110,174.400 115.003 C 190.723 113.811,193.695 113.425,194.460 112.399 C 195.916 110.445,203.019 88.120,202.602 86.806 C 202.362 86.050,198.015 83.506,187.200 77.792 C 171.208 69.343,171.164 69.314,171.747 67.793 C 172.002 67.129,172.522 67.096,178.911 67.340 C 182.700 67.485,191.200 67.785,197.800 68.008 M248.400 151.767 C 248.400 152.115,248.685 152.400,249.033 152.400 C 249.740 152.400,249.617 151.539,248.875 151.292 C 248.614 151.205,248.400 151.418,248.400 151.767 M244.617 162.772 C 244.344 163.214,244.975 163.692,245.344 163.322 C 245.725 162.942,245.654 162.400,245.224 162.400 C 245.017 162.400,244.744 162.568,244.617 162.772 M153.200 166.576 C 153.200 166.893,153.380 167.264,153.600 167.400 C 153.820 167.536,154.000 167.277,154.000 166.824 C 154.000 166.371,153.820 166.000,153.600 166.000 C 153.380 166.000,153.200 166.259,153.200 166.576 M220.957 215.433 C 221.091 215.781,221.200 216.141,221.200 216.233 C 221.200 216.325,221.470 216.400,221.800 216.400 C 222.133 216.400,222.400 216.044,222.400 215.600 C 222.400 215.053,222.133 214.800,221.557 214.800 C 220.953 214.800,220.783 214.979,220.957 215.433 M224.000 217.976 C 224.000 218.623,223.820 219.264,223.600 219.400 C 223.380 219.536,223.200 219.827,223.200 220.047 C 223.200 220.267,223.396 220.326,223.635 220.178 C 223.915 220.005,224.042 220.318,223.992 221.055 C 223.808 223.796,224.708 224.025,225.934 221.547 L 226.752 219.894 225.509 218.347 C 224.018 216.492,224.000 216.487,224.000 217.976 M126.167 262.243 C 127.177 262.630,126.934 263.951,125.800 264.236 C 124.593 264.539,124.522 265.023,125.600 265.600 C 126.707 266.192,126.601 267.143,125.376 267.609 C 124.267 268.031,124.395 268.800,125.575 268.800 C 128.156 268.800,127.285 270.904,124.680 270.961 C 121.982 271.021,121.600 270.477,121.600 266.580 C 121.600 262.331,122.980 261.020,126.167 262.243 M141.497 262.900 C 142.262 263.870,142.449 270.406,141.720 270.686 C 140.506 271.152,139.600 269.376,139.600 266.529 C 139.600 263.124,140.426 261.544,141.497 262.900 M258.408 263.800 C 258.604 264.900,258.365 266.610,257.655 269.200 C 257.134 271.101,255.837 270.488,255.542 268.200 C 255.400 267.100,255.174 265.930,255.041 265.600 C 254.908 265.270,255.163 264.403,255.609 263.674 C 256.662 261.952,258.091 262.016,258.408 263.800 M267.971 265.454 C 269.752 267.718,268.492 270.800,265.784 270.800 C 263.930 270.800,262.800 269.636,262.800 267.726 C 262.800 264.677,266.189 263.188,267.971 265.454 M276.332 264.919 C 276.649 265.300,276.556 265.751,275.984 266.619 C 275.556 267.268,275.204 268.301,275.203 268.913 C 275.197 271.406,273.269 270.684,272.917 268.057 C 272.548 265.310,274.879 263.168,276.332 264.919 M288.640 264.706 C 289.909 265.553,290.483 268.957,289.520 269.920 C 288.705 270.735,287.986 270.457,287.396 269.100 C 286.953 268.079,286.828 267.983,286.816 268.651 C 286.779 270.632,284.638 270.888,284.156 268.968 L 283.889 267.902 283.364 269.151 C 283.075 269.838,282.555 270.400,282.209 270.400 C 280.851 270.400,280.425 266.415,281.630 264.964 C 282.133 264.358,287.805 264.149,288.640 264.706 M134.800 267.600 C 134.800 268.187,134.533 268.400,133.800 268.400 C 132.859 268.400,132.459 267.674,133.067 267.067 C 133.663 266.470,134.800 266.820,134.800 267.600 M265.456 267.078 C 264.978 267.556,265.198 268.400,265.800 268.400 C 266.130 268.400,266.400 268.141,266.400 267.824 C 266.400 267.155,265.829 266.704,265.456 267.078 " stroke="none" fill="#f9f7f9" fill-rule="evenodd"></path><path id="path1" d="M174.255 68.712 C 173.887 69.307,174.291 69.553,183.600 74.401 C 194.797 80.232,202.165 84.322,203.184 85.271 C 204.665 86.650,204.224 88.632,198.944 104.348 C 195.362 115.007,195.289 114.263,200.296 118.099 C 217.031 130.920,238.205 137.738,259.000 137.003 C 267.034 136.719,269.362 136.409,270.269 135.503 C 270.575 135.196,271.974 130.368,273.378 124.773 C 277.834 107.006,277.631 107.398,282.177 107.789 C 287.601 108.255,287.224 107.587,280.497 104.811 C 274.233 102.227,266.037 98.597,260.400 95.911 C 257.870 94.706,254.319 93.036,252.509 92.201 C 248.119 90.175,247.637 89.634,248.785 88.021 C 249.995 86.322,250.192 86.369,258.444 90.343 C 265.666 93.821,276.187 98.623,287.525 103.617 C 291.574 105.400,293.520 106.482,294.169 107.313 C 295.073 108.467,295.200 108.498,302.044 109.235 C 316.071 110.746,316.072 110.873,302.000 102.796 C 297.270 100.081,292.410 97.204,291.200 96.402 C 288.758 94.784,278.882 89.106,272.400 85.592 C 270.090 84.340,264.420 81.197,259.800 78.607 C 255.180 76.018,250.736 73.549,249.925 73.122 C 247.701 71.951,223.381 70.279,193.000 69.209 C 186.400 68.976,179.538 68.680,177.750 68.550 C 175.763 68.406,174.405 68.468,174.255 68.712 M185.660 237.112 C 184.860 237.243,184.760 237.425,184.990 238.333 C 185.733 241.257,186.072 247.450,185.593 249.346 C 185.098 251.311,185.356 251.988,186.600 251.988 C 187.848 251.988,188.084 251.321,187.605 249.152 C 187.104 246.882,187.198 239.472,187.743 238.331 C 188.132 237.515,187.052 236.883,185.660 237.112 M191.396 237.206 C 191.258 237.429,191.354 238.554,191.609 239.706 C 192.072 241.799,191.952 247.799,191.397 250.300 C 191.115 251.576,191.136 251.600,192.521 251.600 C 194.202 251.600,194.466 251.069,193.701 249.229 C 193.094 247.771,193.310 244.627,194.048 244.170 C 194.758 243.732,195.877 245.166,197.209 248.222 C 197.924 249.860,198.664 251.227,198.854 251.260 C 200.166 251.487,200.202 251.355,200.463 245.400 C 200.608 242.100,200.788 238.860,200.863 238.200 C 200.978 237.194,200.847 236.978,200.054 236.866 C 198.553 236.654,198.247 237.288,198.798 239.466 C 200.150 244.807,197.821 245.857,195.547 240.932 C 194.650 238.989,193.710 237.268,193.458 237.106 C 192.795 236.681,191.688 236.735,191.396 237.206 M216.900 237.057 C 216.228 237.339,216.270 237.993,217.013 238.815 C 217.351 239.187,218.067 241.812,218.606 244.646 C 219.956 251.749,219.909 251.600,220.784 251.600 C 221.824 251.600,221.840 251.562,223.404 245.527 C 224.160 242.612,225.161 239.708,225.630 239.074 C 226.664 237.675,226.249 237.089,224.351 237.271 C 223.044 237.396,223.003 237.452,223.100 238.999 C 223.250 241.421,222.155 244.800,221.220 244.800 C 220.102 244.800,218.930 240.761,219.564 239.094 C 220.127 237.613,218.514 236.379,216.900 237.057 M171.923 237.619 C 171.301 237.982,171.296 238.132,171.866 239.497 C 172.353 240.663,172.454 242.156,172.335 246.482 C 172.215 250.825,172.297 252.028,172.721 252.191 C 173.607 252.531,174.765 251.658,175.380 250.186 C 176.185 248.259,177.590 248.273,178.637 250.217 C 179.450 251.728,180.953 252.411,181.729 251.624 C 182.092 251.256,181.935 250.952,181.049 250.303 C 177.600 247.775,177.270 241.695,180.436 239.031 C 181.910 237.791,181.914 237.200,180.449 237.200 C 179.021 237.200,178.788 237.497,177.393 241.105 C 175.367 246.345,173.769 246.302,174.098 241.016 C 174.268 238.289,174.197 237.608,173.721 237.425 C 172.946 237.127,172.725 237.151,171.923 237.619 M206.300 237.632 C 203.474 239.278,203.595 249.549,206.458 251.030 C 210.396 253.066,212.800 250.475,212.800 244.194 C 212.800 238.256,210.030 235.460,206.300 237.632 M164.258 237.967 C 158.570 238.573,158.437 242.998,164.022 245.811 C 166.969 247.295,167.682 248.353,166.820 249.963 C 166.168 251.180,164.015 251.093,162.800 249.800 C 161.344 248.250,160.400 248.467,160.400 250.351 C 160.400 252.437,160.905 252.716,164.146 252.423 C 170.234 251.872,170.585 247.513,164.778 244.589 C 161.831 243.105,161.118 242.047,161.980 240.437 C 162.652 239.181,164.956 239.295,166.208 240.647 C 167.410 241.944,168.400 241.672,168.400 240.045 C 168.400 238.382,168.021 237.590,167.257 237.659 C 166.896 237.691,165.546 237.830,164.258 237.967 M233.467 238.267 C 233.320 238.413,233.200 238.998,233.200 239.567 C 233.201 241.363,230.706 249.694,229.937 250.463 C 228.217 252.183,229.903 253.164,231.891 251.600 C 233.264 250.520,234.893 250.593,236.327 251.800 C 237.633 252.899,239.200 253.130,239.200 252.224 C 239.200 251.907,239.009 251.529,238.775 251.385 C 238.063 250.945,237.616 249.318,236.761 244.054 C 235.835 238.360,234.942 236.791,233.467 238.267 M210.278 239.366 C 212.868 241.595,211.583 250.000,208.653 250.000 C 206.328 250.000,205.800 248.949,205.800 244.322 C 205.800 238.957,207.551 237.019,210.278 239.366 M235.120 245.280 C 235.842 246.002,235.731 248.664,234.967 248.957 C 233.285 249.603,232.510 248.269,233.370 246.209 C 233.999 244.705,234.356 244.516,235.120 245.280 " stroke="none" fill="#2e2f37" fill-rule="evenodd"></path><path id="path2" d="M249.700 87.865 C 248.113 88.505,249.288 89.673,253.500 91.644 C 255.865 92.750,259.060 94.251,260.600 94.980 C 262.140 95.709,265.290 97.148,267.600 98.178 C 276.207 102.017,277.881 102.770,281.249 104.323 C 283.145 105.198,285.246 106.034,285.917 106.182 C 286.588 106.329,287.610 106.889,288.189 107.425 C 288.768 107.961,289.492 108.400,289.798 108.400 C 291.353 108.400,291.983 110.986,291.000 113.338 C 290.670 114.128,290.400 115.599,290.400 116.607 C 290.400 117.615,290.128 118.966,289.795 119.610 C 289.462 120.253,289.080 121.909,288.945 123.290 C 288.811 124.670,288.456 126.771,288.157 127.958 C 287.858 129.144,287.717 130.526,287.843 131.029 C 288.011 131.699,287.786 132.190,286.998 132.871 C 285.321 134.321,284.701 135.828,285.015 137.689 C 285.286 139.293,285.265 139.327,282.344 142.070 C 279.006 145.205,278.997 146.764,282.324 145.374 C 284.071 144.644,284.320 144.877,284.476 147.396 C 284.635 149.959,285.653 150.355,286.659 148.246 C 287.566 146.342,288.088 146.240,289.829 147.623 C 292.252 149.549,293.803 148.810,292.185 146.500 C 289.662 142.897,288.912 140.293,290.000 138.909 C 290.949 137.703,291.026 135.838,290.208 133.880 C 289.684 132.627,289.684 132.296,290.208 131.044 C 290.533 130.264,290.800 128.714,290.800 127.600 C 290.800 126.486,291.167 124.484,291.617 123.151 C 292.066 121.818,292.395 119.978,292.348 119.064 C 292.301 118.149,292.486 116.984,292.758 116.476 C 293.031 115.968,293.395 114.348,293.569 112.876 C 293.742 111.404,294.009 109.910,294.163 109.556 C 294.569 108.620,292.670 106.547,290.887 105.982 C 290.069 105.722,288.208 104.912,286.751 104.181 C 285.295 103.451,282.993 102.489,281.637 102.043 C 280.281 101.598,278.683 100.891,278.086 100.472 C 277.488 100.054,276.280 99.482,275.400 99.202 C 274.520 98.921,273.066 98.267,272.168 97.748 C 271.270 97.229,269.560 96.457,268.368 96.032 C 267.176 95.608,262.739 93.537,258.508 91.430 C 254.278 89.324,250.678 87.614,250.508 87.632 C 250.339 87.649,249.975 87.754,249.700 87.865 " stroke="none" fill="#eaaa55" fill-rule="evenodd"></path><path id="path3" d="M173.016 68.374 C 172.643 68.978,174.975 70.459,182.000 74.083 C 190.039 78.230,200.985 84.212,202.546 85.312 C 204.213 86.487,202.930 91.980,197.362 107.515 C 194.812 114.627,194.809 114.608,199.343 118.132 C 216.412 131.396,237.124 138.118,258.940 137.475 C 267.150 137.233,269.678 136.894,270.669 135.902 C 270.976 135.596,272.374 130.768,273.778 125.173 C 278.354 106.927,277.607 108.187,283.758 108.344 C 289.178 108.483,290.291 107.436,286.000 106.236 C 285.083 105.979,283.692 105.378,274.800 101.395 C 273.150 100.656,269.910 99.208,267.600 98.178 C 265.290 97.148,262.140 95.709,260.600 94.980 C 259.060 94.251,255.865 92.750,253.500 91.644 C 250.166 90.084,249.200 89.455,249.200 88.843 C 249.200 87.115,250.646 87.516,258.472 91.412 C 262.722 93.529,267.176 95.608,268.368 96.032 C 269.560 96.457,271.270 97.229,272.168 97.748 C 273.066 98.267,274.520 98.921,275.400 99.202 C 276.280 99.482,277.488 100.054,278.086 100.472 C 278.683 100.891,280.281 101.598,281.637 102.043 C 282.993 102.489,285.295 103.451,286.751 104.181 C 288.208 104.912,290.069 105.722,290.887 105.982 C 291.705 106.241,292.855 107.026,293.444 107.727 L 294.514 109.000 301.157 109.671 C 316.673 111.238,316.963 110.865,305.400 104.209 C 301.660 102.056,296.980 99.299,295.000 98.082 C 288.737 94.232,267.214 82.036,250.874 73.078 C 248.813 71.948,248.431 71.890,238.274 71.173 C 232.513 70.766,225.370 70.244,222.400 70.013 C 219.430 69.782,211.870 69.410,205.600 69.187 C 199.330 68.963,189.970 68.606,184.800 68.393 C 173.237 67.915,173.299 67.916,173.016 68.374 M193.000 69.209 C 223.381 70.279,247.701 71.951,249.925 73.122 C 250.736 73.549,255.180 76.018,259.800 78.607 C 264.420 81.197,270.090 84.340,272.400 85.592 C 278.882 89.106,288.758 94.784,291.200 96.402 C 292.410 97.204,297.270 100.081,302.000 102.796 C 316.072 110.873,316.071 110.746,302.044 109.235 C 295.200 108.498,295.073 108.467,294.169 107.313 C 293.520 106.482,291.574 105.400,287.525 103.617 C 276.187 98.623,265.666 93.821,258.444 90.343 C 250.192 86.369,249.995 86.322,248.785 88.021 C 247.637 89.634,248.119 90.175,252.509 92.201 C 254.319 93.036,257.870 94.706,260.400 95.911 C 266.037 98.597,274.233 102.227,280.497 104.811 C 287.224 107.587,287.601 108.255,282.177 107.789 C 277.631 107.398,277.834 107.006,273.378 124.773 C 271.974 130.368,270.575 135.196,270.269 135.503 C 269.362 136.409,267.034 136.719,259.000 137.003 C 238.205 137.738,217.031 130.920,200.296 118.099 C 195.289 114.263,195.362 115.007,198.944 104.348 C 204.224 88.632,204.665 86.650,203.184 85.271 C 202.165 84.322,194.797 80.232,183.600 74.401 C 172.260 68.495,171.889 68.124,177.750 68.550 C 179.538 68.680,186.400 68.976,193.000 69.209 M190.633 236.764 C 189.996 237.467,189.991 237.623,190.571 238.744 C 191.492 240.524,191.450 247.849,190.508 249.824 C 189.685 251.550,190.373 252.405,192.576 252.394 C 194.954 252.382,195.061 252.091,194.193 248.000 C 193.553 244.981,195.244 245.633,196.768 248.993 C 199.434 254.873,201.100 253.600,201.346 245.496 C 201.448 242.143,201.591 238.770,201.665 238.000 L 201.800 236.600 199.800 236.600 L 197.800 236.600 197.914 238.000 C 198.378 243.728,197.828 244.223,195.843 239.867 C 194.110 236.064,192.262 234.963,190.633 236.764 M178.565 237.133 C 178.198 237.561,177.426 239.042,176.849 240.423 C 175.300 244.132,173.684 243.482,174.843 239.615 C 175.518 237.363,175.161 236.800,173.062 236.800 C 170.642 236.800,170.071 237.530,170.945 239.509 C 171.571 240.925,171.871 247.040,171.518 251.200 C 171.319 253.562,174.324 253.538,175.821 251.166 L 176.880 249.488 178.394 251.144 C 179.980 252.879,180.490 253.050,182.174 252.410 C 183.637 251.854,183.482 250.645,181.821 249.666 C 178.232 247.548,177.947 241.048,181.363 239.220 C 182.169 238.788,182.408 238.389,182.319 237.622 C 182.159 236.250,179.606 235.917,178.565 237.133 M184.122 237.059 C 183.983 237.421,184.085 238.276,184.348 238.959 C 185.258 241.316,185.414 247.796,184.604 249.591 C 183.674 251.654,184.204 252.400,186.600 252.400 C 188.944 252.400,189.551 251.626,188.665 249.767 C 187.868 248.096,187.723 240.246,188.459 238.631 C 189.129 237.160,188.338 236.400,186.138 236.400 C 184.870 236.400,184.304 236.585,184.122 237.059 M205.298 237.766 L 203.808 239.131 203.663 243.706 C 203.434 250.912,205.903 253.788,210.626 251.815 C 214.347 250.260,214.889 240.016,211.395 237.267 C 209.618 235.869,207.147 236.072,205.298 237.766 M215.867 236.667 C 215.369 237.165,215.597 238.429,216.382 239.516 C 216.856 240.173,217.496 242.411,218.008 245.200 C 219.241 251.919,219.429 252.400,220.817 252.400 C 222.303 252.400,222.489 252.020,224.042 245.819 C 224.892 242.425,225.634 240.346,226.260 239.602 C 227.835 237.730,227.146 236.400,224.600 236.400 C 222.493 236.400,221.890 237.070,222.191 239.078 C 222.479 241.002,221.822 243.341,221.064 243.088 C 220.305 242.835,219.929 240.429,220.416 238.951 C 221.046 237.044,220.440 236.400,218.018 236.400 C 216.981 236.400,216.013 236.520,215.867 236.667 M164.581 237.161 C 158.022 237.809,157.304 243.138,163.348 246.305 C 165.725 247.551,166.200 247.967,166.200 248.800 C 166.200 250.282,164.130 250.416,162.818 249.019 C 161.038 247.125,159.600 247.806,159.600 250.544 C 159.600 252.966,160.407 253.538,163.491 253.301 C 170.850 252.736,171.943 247.340,165.374 244.007 C 162.358 242.477,161.609 241.252,163.176 240.413 C 164.107 239.915,164.978 240.250,166.166 241.563 C 167.700 243.257,169.200 242.360,169.200 239.749 C 169.200 238.058,168.411 236.739,167.471 236.861 C 167.212 236.895,165.911 237.030,164.581 237.161 M187.743 238.331 C 187.198 239.472,187.104 246.882,187.605 249.152 C 188.084 251.321,187.848 251.988,186.600 251.988 C 185.356 251.988,185.098 251.311,185.593 249.346 C 186.072 247.450,185.733 241.257,184.990 238.333 C 184.760 237.425,184.860 237.243,185.660 237.112 C 187.052 236.883,188.132 237.515,187.743 238.331 M193.458 237.106 C 193.710 237.268,194.650 238.989,195.547 240.932 C 197.821 245.857,200.150 244.807,198.798 239.466 C 198.247 237.288,198.553 236.654,200.054 236.866 C 200.847 236.978,200.978 237.194,200.863 238.200 C 200.788 238.860,200.608 242.100,200.463 245.400 C 200.202 251.355,200.166 251.487,198.854 251.260 C 198.664 251.227,197.924 249.860,197.209 248.222 C 195.877 245.166,194.758 243.732,194.048 244.170 C 193.310 244.627,193.094 247.771,193.701 249.229 C 194.466 251.069,194.202 251.600,192.521 251.600 C 191.136 251.600,191.115 251.576,191.397 250.300 C 191.952 247.799,192.072 241.799,191.609 239.706 C 191.019 237.041,191.752 236.012,193.458 237.106 M219.661 237.698 C 219.809 237.938,219.765 238.566,219.564 239.094 C 218.930 240.761,220.102 244.800,221.220 244.800 C 222.155 244.800,223.250 241.421,223.100 238.999 C 223.003 237.452,223.044 237.396,224.351 237.271 C 226.249 237.089,226.664 237.675,225.630 239.074 C 225.161 239.708,224.160 242.612,223.404 245.527 C 221.840 251.562,221.824 251.600,220.784 251.600 C 219.909 251.600,219.956 251.749,218.606 244.646 C 218.067 241.812,217.351 239.187,217.013 238.815 C 216.270 237.993,216.228 237.339,216.900 237.057 C 217.592 236.766,219.335 237.171,219.661 237.698 M173.721 237.425 C 174.197 237.608,174.268 238.289,174.098 241.016 C 173.769 246.302,175.367 246.345,177.393 241.105 C 178.788 237.497,179.021 237.200,180.449 237.200 C 181.914 237.200,181.910 237.791,180.436 239.031 C 177.270 241.695,177.600 247.775,181.049 250.303 C 181.935 250.952,182.092 251.256,181.729 251.624 C 180.953 252.411,179.450 251.728,178.637 250.217 C 177.590 248.273,176.185 248.259,175.380 250.186 C 174.765 251.658,173.607 252.531,172.721 252.191 C 172.297 252.028,172.215 250.825,172.335 246.482 C 172.454 242.156,172.353 240.663,171.866 239.497 C 171.116 237.701,171.966 236.752,173.721 237.425 M211.053 237.909 C 213.765 240.105,213.533 249.001,210.713 250.976 C 208.913 252.236,205.783 251.397,204.878 249.411 C 204.169 247.856,204.256 240.639,205.000 239.200 C 206.066 237.138,209.260 236.457,211.053 237.909 M232.880 237.680 C 232.616 237.944,232.400 238.799,232.400 239.581 C 232.400 241.691,230.143 249.196,229.210 250.189 C 227.102 252.433,229.623 254.356,232.109 252.400 C 233.480 251.322,234.866 251.393,236.000 252.600 C 237.005 253.670,238.717 253.923,239.520 253.120 C 240.214 252.426,240.111 251.570,239.218 250.619 C 238.646 250.010,238.202 248.339,237.564 244.393 C 236.460 237.570,235.034 235.526,232.880 237.680 M168.157 238.233 C 169.123 240.749,167.810 242.375,166.208 240.647 C 164.956 239.295,162.652 239.181,161.980 240.437 C 161.118 242.047,161.831 243.105,164.778 244.589 C 170.585 247.513,170.234 251.872,164.146 252.423 C 160.905 252.716,160.400 252.437,160.400 250.351 C 160.400 248.467,161.344 248.250,162.800 249.800 C 164.015 251.093,166.168 251.180,166.820 249.963 C 167.682 248.353,166.969 247.295,164.022 245.811 C 159.923 243.747,158.943 241.674,160.958 239.330 C 161.898 238.238,162.466 238.088,167.257 237.659 C 167.619 237.626,168.024 237.885,168.157 238.233 M235.522 238.506 C 235.752 238.784,236.310 241.280,236.761 244.054 C 237.616 249.318,238.063 250.945,238.775 251.385 C 239.009 251.529,239.200 251.907,239.200 252.224 C 239.200 253.130,237.633 252.899,236.327 251.800 C 234.893 250.593,233.264 250.520,231.891 251.600 C 229.903 253.164,228.217 252.183,229.937 250.463 C 230.706 249.694,233.201 241.363,233.200 239.567 C 233.200 237.979,234.566 237.354,235.522 238.506 M206.922 239.365 C 205.448 240.633,205.190 247.639,206.562 249.157 C 209.095 251.960,211.400 249.543,211.400 244.084 C 211.400 238.971,209.594 237.068,206.922 239.365 M209.824 239.768 C 211.106 240.705,210.975 247.767,209.656 248.835 C 207.488 250.591,206.400 249.109,206.400 244.400 C 206.400 239.792,207.613 238.151,209.824 239.768 M233.370 246.209 C 232.510 248.269,233.285 249.603,234.967 248.957 C 236.185 248.490,235.593 244.800,234.300 244.800 C 234.112 244.800,233.694 245.434,233.370 246.209 M234.800 247.400 C 234.800 247.730,234.620 248.000,234.400 248.000 C 234.180 248.000,234.000 247.730,234.000 247.400 C 234.000 247.070,234.180 246.800,234.400 246.800 C 234.620 246.800,234.800 247.070,234.800 247.400 M220.000 267.200 C 220.000 267.716,220.203 267.999,220.500 267.900 C 220.775 267.808,221.000 267.493,221.000 267.200 C 221.000 266.907,220.775 266.592,220.500 266.500 C 220.203 266.401,220.000 266.684,220.000 267.200 M160.800 267.600 C 160.800 268.347,160.907 268.453,161.280 268.080 C 161.653 267.707,161.653 267.493,161.280 267.120 C 160.907 266.747,160.800 266.853,160.800 267.600 M240.400 267.600 C 240.400 268.347,240.507 268.453,240.880 268.080 C 241.253 267.707,241.253 267.493,240.880 267.120 C 240.507 266.747,240.400 266.853,240.400 267.600 M203.200 267.967 C 203.200 268.169,203.091 268.619,202.957 268.967 C 202.775 269.442,202.969 269.600,203.734 269.600 C 204.972 269.600,205.439 268.970,204.785 268.182 C 204.249 267.536,203.200 267.394,203.200 267.967 " stroke="none" fill="#856f78" fill-rule="evenodd"></path><path id="path4" d="M172.552 68.181 C 172.244 68.984,172.637 69.499,174.125 70.244 L 175.400 70.882 174.000 69.674 C 172.404 68.297,172.594 68.108,175.800 67.884 C 177.687 67.752,177.658 67.740,175.287 67.672 C 173.411 67.618,172.719 67.747,172.552 68.181 M181.315 68.296 C 182.588 68.376,184.568 68.375,185.715 68.294 C 186.862 68.214,185.820 68.149,183.400 68.150 C 180.980 68.151,180.042 68.216,181.315 68.296 M191.712 68.695 C 192.764 68.777,194.384 68.776,195.312 68.692 C 196.240 68.608,195.380 68.541,193.400 68.542 C 191.420 68.543,190.660 68.612,191.712 68.695 M202.517 69.097 C 204.011 69.174,206.351 69.174,207.717 69.096 C 209.082 69.018,207.860 68.955,205.000 68.955 C 202.140 68.956,201.022 69.020,202.517 69.097 M213.511 69.493 C 214.451 69.578,215.891 69.577,216.711 69.491 C 217.530 69.405,216.760 69.336,215.000 69.337 C 213.240 69.339,212.570 69.409,213.511 69.493 M220.505 69.887 C 221.114 69.979,222.014 69.977,222.505 69.882 C 222.997 69.787,222.500 69.711,221.400 69.714 C 220.300 69.717,219.897 69.795,220.505 69.887 M225.507 70.290 C 226.226 70.379,227.306 70.377,227.907 70.286 C 228.508 70.195,227.920 70.122,226.600 70.124 C 225.280 70.126,224.788 70.201,225.507 70.290 M231.500 70.689 C 232.215 70.778,233.385 70.778,234.100 70.689 C 234.815 70.601,234.230 70.528,232.800 70.528 C 231.370 70.528,230.785 70.601,231.500 70.689 M237.507 71.090 C 238.226 71.179,239.306 71.177,239.907 71.086 C 240.508 70.995,239.920 70.922,238.600 70.924 C 237.280 70.926,236.788 71.001,237.507 71.090 M176.400 71.393 C 176.400 71.503,178.380 72.586,180.800 73.800 C 183.220 75.014,185.200 75.917,185.200 75.807 C 185.200 75.697,183.220 74.614,180.800 73.400 C 178.380 72.186,176.400 71.283,176.400 71.393 M243.107 71.490 C 243.826 71.579,244.906 71.577,245.507 71.486 C 246.108 71.395,245.520 71.322,244.200 71.324 C 242.880 71.326,242.388 71.401,243.107 71.490 M249.233 72.149 C 249.645 72.517,252.000 73.600,252.000 73.421 C 252.000 73.190,249.782 72.000,249.353 72.000 C 249.196 72.000,249.142 72.067,249.233 72.149 M252.400 73.779 C 252.400 73.889,252.940 74.259,253.600 74.600 C 254.260 74.941,254.800 75.131,254.800 75.021 C 254.800 74.911,254.260 74.541,253.600 74.200 C 252.940 73.859,252.400 73.669,252.400 73.779 M255.200 75.379 C 255.200 75.489,255.740 75.859,256.400 76.200 C 257.060 76.541,257.600 76.731,257.600 76.621 C 257.600 76.511,257.060 76.141,256.400 75.800 C 255.740 75.459,255.200 75.269,255.200 75.379 M186.400 76.587 C 186.400 76.697,187.300 77.243,188.400 77.800 C 189.500 78.357,190.400 78.723,190.400 78.613 C 190.400 78.503,189.500 77.957,188.400 77.400 C 187.300 76.843,186.400 76.477,186.400 76.587 M258.000 76.987 C 258.000 77.097,258.900 77.643,260.000 78.200 C 261.100 78.757,262.000 79.123,262.000 79.013 C 262.000 78.903,261.100 78.357,260.000 77.800 C 258.900 77.243,258.000 76.877,258.000 76.987 M191.600 79.387 C 191.600 79.497,192.500 80.043,193.600 80.600 C 194.700 81.157,195.600 81.523,195.600 81.413 C 195.600 81.303,194.700 80.757,193.600 80.200 C 192.500 79.643,191.600 79.277,191.600 79.387 M262.400 79.384 C 262.400 79.494,263.120 79.951,264.000 80.400 C 264.880 80.849,265.600 81.126,265.600 81.016 C 265.600 80.906,264.880 80.449,264.000 80.000 C 263.120 79.551,262.400 79.274,262.400 79.384 M266.000 81.379 C 266.000 81.489,266.540 81.859,267.200 82.200 C 267.860 82.541,268.400 82.731,268.400 82.621 C 268.400 82.511,267.860 82.141,267.200 81.800 C 266.540 81.459,266.000 81.269,266.000 81.379 M196.000 81.784 C 196.000 81.894,196.720 82.351,197.600 82.800 C 198.480 83.249,199.200 83.526,199.200 83.416 C 199.200 83.306,198.480 82.849,197.600 82.400 C 196.720 81.951,196.000 81.674,196.000 81.784 M268.800 82.987 C 268.800 83.097,269.700 83.643,270.800 84.200 C 271.900 84.757,272.800 85.123,272.800 85.013 C 272.800 84.903,271.900 84.357,270.800 83.800 C 269.700 83.243,268.800 82.877,268.800 82.987 M199.600 83.748 C 199.600 83.845,200.399 84.392,201.375 84.964 C 202.794 85.796,203.182 86.264,203.311 87.302 L 203.472 88.600 203.536 87.327 C 203.585 86.351,203.343 85.875,202.500 85.284 C 201.131 84.325,199.600 83.514,199.600 83.748 M274.000 85.784 C 274.000 85.894,274.720 86.351,275.600 86.800 C 276.480 87.249,277.200 87.526,277.200 87.416 C 277.200 87.306,276.480 86.849,275.600 86.400 C 274.720 85.951,274.000 85.674,274.000 85.784 M277.600 87.779 C 277.600 87.889,278.140 88.259,278.800 88.600 C 279.460 88.941,280.000 89.131,280.000 89.021 C 280.000 88.911,279.460 88.541,278.800 88.200 C 278.140 87.859,277.600 87.669,277.600 87.779 M280.600 89.481 C 280.820 89.708,281.900 90.397,283.000 91.013 C 284.100 91.628,284.820 91.946,284.600 91.719 C 284.380 91.492,283.300 90.803,282.200 90.187 C 281.100 89.572,280.380 89.254,280.600 89.481 M202.229 91.429 C 202.081 92.015,202.038 92.572,202.132 92.666 C 202.227 92.760,202.424 92.358,202.571 91.771 C 202.719 91.185,202.762 90.628,202.668 90.534 C 202.573 90.440,202.376 90.842,202.229 91.429 M285.200 92.184 C 285.200 92.294,285.920 92.751,286.800 93.200 C 287.680 93.649,288.400 93.926,288.400 93.816 C 288.400 93.706,287.680 93.249,286.800 92.800 C 285.920 92.351,285.200 92.074,285.200 92.184 M199.829 99.029 C 199.681 99.615,199.638 100.172,199.732 100.266 C 199.827 100.360,200.024 99.958,200.171 99.371 C 200.319 98.785,200.362 98.228,200.268 98.134 C 200.173 98.040,199.976 98.442,199.829 99.029 M297.200 99.379 C 297.200 99.489,297.740 99.859,298.400 100.200 C 299.060 100.541,299.600 100.731,299.600 100.621 C 299.600 100.511,299.060 100.141,298.400 99.800 C 297.740 99.459,297.200 99.269,297.200 99.379 M300.000 100.979 C 300.000 101.089,300.540 101.459,301.200 101.800 C 301.860 102.141,302.400 102.331,302.400 102.221 C 302.400 102.111,301.860 101.741,301.200 101.400 C 300.540 101.059,300.000 100.869,300.000 100.979 M302.800 102.579 C 302.800 102.689,303.340 103.059,304.000 103.400 C 304.660 103.741,305.200 103.931,305.200 103.821 C 305.200 103.711,304.660 103.341,304.000 103.000 C 303.340 102.659,302.800 102.469,302.800 102.579 M307.800 105.481 C 308.020 105.708,309.100 106.397,310.200 107.013 C 311.300 107.628,312.020 107.946,311.800 107.719 C 311.580 107.492,310.500 106.803,309.400 106.187 C 308.300 105.572,307.580 105.254,307.800 105.481 M197.244 106.844 C 196.998 107.551,196.866 108.200,196.952 108.285 C 197.038 108.371,197.309 107.862,197.556 107.156 C 197.802 106.449,197.934 105.800,197.848 105.715 C 197.762 105.629,197.491 106.138,197.244 106.844 M285.200 108.400 L 281.800 108.651 285.076 108.725 C 286.914 108.767,288.461 108.624,288.600 108.400 C 288.736 108.180,288.792 108.034,288.724 108.075 C 288.656 108.116,287.070 108.262,285.200 108.400 M313.160 108.908 C 314.314 110.195,314.099 110.321,310.400 110.523 C 308.264 110.639,308.371 110.659,311.000 110.632 C 314.529 110.597,315.329 109.809,313.200 108.467 L 312.200 107.837 313.160 108.908 M296.105 109.487 C 296.714 109.579,297.614 109.577,298.105 109.482 C 298.597 109.387,298.100 109.311,297.000 109.314 C 295.900 109.317,295.497 109.395,296.105 109.487 M300.705 109.883 C 301.202 109.979,301.922 109.975,302.305 109.875 C 302.687 109.775,302.280 109.696,301.400 109.701 C 300.520 109.705,300.207 109.787,300.705 109.883 M304.300 110.282 C 304.795 110.378,305.605 110.378,306.100 110.282 C 306.595 110.187,306.190 110.109,305.200 110.109 C 304.210 110.109,303.805 110.187,304.300 110.282 M277.029 112.629 C 276.881 113.215,276.838 113.772,276.932 113.866 C 277.027 113.960,277.224 113.558,277.371 112.971 C 277.519 112.385,277.562 111.828,277.468 111.734 C 277.373 111.640,277.176 112.042,277.029 112.629 M195.246 113.653 C 195.121 117.577,212.055 128.235,225.678 132.807 C 230.533 134.436,241.798 137.210,243.370 137.164 C 244.069 137.143,243.391 136.903,241.800 136.607 C 228.644 134.161,214.754 128.815,205.600 122.675 C 200.497 119.253,196.008 115.578,195.815 114.666 C 195.714 114.190,195.555 113.440,195.462 113.000 C 195.369 112.560,195.272 112.854,195.246 113.653 M246.600 137.637 C 248.550 137.923,259.395 138.071,258.600 137.801 C 258.380 137.727,255.140 137.594,251.400 137.505 C 247.660 137.417,245.500 137.477,246.600 137.637 M264.505 137.487 C 265.114 137.579,266.014 137.577,266.505 137.482 C 266.997 137.387,266.500 137.311,265.400 137.314 C 264.300 137.317,263.897 137.395,264.505 137.487 M178.880 236.005 C 178.317 236.240,177.558 237.281,176.921 238.694 C 175.508 241.827,174.576 242.384,175.631 239.464 C 176.669 236.593,173.812 234.956,170.646 236.607 C 169.812 237.042,169.349 237.090,168.975 236.780 C 168.316 236.232,162.441 236.536,161.238 237.179 C 156.988 239.454,158.447 245.182,163.793 247.210 C 164.911 247.634,165.439 248.090,165.528 248.710 C 165.721 250.053,164.237 249.856,163.200 248.400 C 161.442 245.931,159.200 247.044,159.200 250.386 C 159.200 253.739,159.661 254.097,163.541 253.760 C 166.915 253.466,167.677 253.190,169.300 251.676 C 170.378 250.670,170.400 250.667,170.400 251.516 C 170.400 253.858,174.661 254.214,175.933 251.978 C 176.765 250.515,177.011 250.514,178.235 251.969 L 179.218 253.137 184.109 252.961 C 186.799 252.864,190.273 252.800,191.829 252.819 C 195.566 252.864,196.357 251.840,195.014 248.700 C 194.384 247.227,195.558 248.075,196.398 249.700 C 197.645 252.111,198.365 252.800,199.639 252.800 C 201.633 252.800,202.000 251.686,202.000 245.639 C 202.000 242.415,202.195 239.717,202.487 238.911 C 203.220 236.882,202.612 236.226,199.859 236.080 C 197.205 235.939,196.160 237.057,197.174 238.951 C 197.452 239.470,197.606 240.234,197.517 240.647 C 197.400 241.186,197.001 240.712,196.110 238.976 C 194.481 235.803,194.024 235.454,191.908 235.768 C 190.968 235.907,189.795 236.008,189.300 235.991 C 187.721 235.939,184.437 235.970,183.300 236.048 C 182.695 236.089,181.660 236.010,181.000 235.872 C 180.340 235.734,179.386 235.793,178.880 236.005 M206.600 236.165 C 202.190 238.125,201.125 248.044,204.945 251.567 C 207.389 253.820,211.911 252.881,213.365 249.818 C 214.632 247.147,214.150 239.215,212.623 237.623 C 210.873 235.798,208.641 235.257,206.600 236.165 M215.429 236.229 C 214.555 237.102,214.644 238.382,215.653 239.456 C 216.270 240.113,216.766 241.720,217.449 245.282 C 218.712 251.860,218.710 251.853,219.429 252.572 C 221.492 254.634,222.724 253.081,224.459 246.231 C 225.310 242.872,226.089 240.680,226.684 239.973 C 227.812 238.632,227.878 236.977,226.826 236.414 C 225.887 235.911,222.811 235.878,222.046 236.363 C 221.706 236.579,220.978 236.499,220.159 236.157 C 218.389 235.418,216.207 235.451,215.429 236.229 M193.665 236.435 C 194.112 236.674,195.092 238.218,195.843 239.867 C 197.828 244.223,198.378 243.728,197.914 238.000 L 197.800 236.600 199.800 236.600 L 201.800 236.600 201.665 238.000 C 201.591 238.770,201.448 242.143,201.346 245.496 C 201.100 253.600,199.434 254.873,196.768 248.993 C 195.244 245.633,193.553 244.981,194.193 248.000 C 195.061 252.091,194.954 252.382,192.576 252.394 C 190.373 252.405,189.685 251.550,190.508 249.824 C 191.450 247.849,191.492 240.524,190.571 238.744 C 189.523 236.717,191.473 235.262,193.665 236.435 M182.319 237.622 C 182.408 238.389,182.169 238.788,181.363 239.220 C 177.947 241.048,178.232 247.548,181.821 249.666 C 183.482 250.645,183.637 251.854,182.174 252.410 C 180.490 253.050,179.980 252.879,178.394 251.144 L 176.880 249.488 175.821 251.166 C 174.324 253.538,171.319 253.562,171.518 251.200 C 171.871 247.040,171.571 240.925,170.945 239.509 C 170.071 237.530,170.642 236.800,173.062 236.800 C 175.161 236.800,175.518 237.363,174.843 239.615 C 173.684 243.482,175.300 244.132,176.849 240.423 C 178.307 236.933,178.901 236.326,180.716 236.477 C 181.971 236.581,182.218 236.758,182.319 237.622 M188.410 237.012 C 188.802 237.484,188.813 237.853,188.459 238.631 C 187.723 240.246,187.868 248.096,188.665 249.767 C 189.551 251.626,188.944 252.400,186.600 252.400 C 184.204 252.400,183.674 251.654,184.604 249.591 C 185.414 247.796,185.258 241.316,184.348 238.959 C 183.456 236.647,186.783 235.052,188.410 237.012 M211.395 237.267 C 214.889 240.016,214.347 250.260,210.626 251.815 C 205.903 253.788,203.434 250.912,203.663 243.706 L 203.808 239.131 205.298 237.766 C 207.147 236.072,209.618 235.869,211.395 237.267 M220.387 236.985 C 220.758 237.432,220.765 237.893,220.416 238.951 C 219.929 240.429,220.305 242.835,221.064 243.088 C 221.822 243.341,222.479 241.002,222.191 239.078 C 221.890 237.070,222.493 236.400,224.600 236.400 C 227.146 236.400,227.835 237.730,226.260 239.602 C 225.634 240.346,224.892 242.425,224.042 245.819 C 222.489 252.020,222.303 252.400,220.817 252.400 C 219.429 252.400,219.241 251.919,218.008 245.200 C 217.496 242.411,216.856 240.173,216.382 239.516 C 215.597 238.429,215.369 237.165,215.867 236.667 C 216.390 236.144,219.894 236.390,220.387 236.985 M233.200 236.692 C 232.328 237.024,232.013 237.640,232.006 239.031 C 231.994 241.419,229.613 248.934,228.499 250.102 C 226.130 252.583,229.863 255.024,232.661 252.823 C 233.983 251.784,234.089 251.790,235.527 253.000 C 238.795 255.750,241.935 253.411,239.557 250.000 C 239.152 249.420,238.492 246.816,237.984 243.800 C 236.809 236.819,236.005 235.624,233.200 236.692 M168.571 237.429 C 169.320 238.177,169.420 241.220,168.720 241.920 C 168.001 242.639,167.015 242.501,166.166 241.563 C 164.978 240.250,164.107 239.915,163.176 240.413 C 161.609 241.252,162.358 242.477,165.374 244.007 C 171.943 247.340,170.850 252.736,163.491 253.301 C 160.407 253.538,159.600 252.966,159.600 250.544 C 159.600 247.806,161.038 247.125,162.818 249.019 C 164.130 250.416,166.200 250.282,166.200 248.800 C 166.200 247.967,165.725 247.551,163.348 246.305 C 157.304 243.138,158.022 237.809,164.581 237.161 C 165.911 237.030,167.212 236.895,167.471 236.861 C 167.731 236.827,168.226 237.083,168.571 237.429 M236.136 238.100 C 236.442 238.595,237.084 241.427,237.564 244.393 C 238.202 248.339,238.646 250.010,239.218 250.619 C 240.111 251.570,240.214 252.426,239.520 253.120 C 238.717 253.923,237.005 253.670,236.000 252.600 C 234.866 251.393,233.480 251.322,232.109 252.400 C 229.623 254.356,227.102 252.433,229.210 250.189 C 230.143 249.196,232.400 241.691,232.400 239.581 C 232.400 237.164,234.939 236.158,236.136 238.100 M190.410 239.826 C 191.052 241.514,190.901 248.116,190.200 249.024 C 189.045 250.518,188.400 248.824,188.400 244.297 C 188.400 239.351,189.391 237.146,190.410 239.826 M183.965 239.757 C 184.271 240.126,184.389 241.850,184.314 244.857 L 184.200 249.400 183.000 249.315 C 181.552 249.212,180.206 247.779,179.572 245.666 C 178.608 242.446,182.193 237.623,183.965 239.757 M207.200 240.000 C 205.412 241.788,206.352 249.600,208.356 249.600 C 210.572 249.600,211.821 241.229,209.824 239.768 C 208.771 238.998,208.147 239.053,207.200 240.000 M221.600 240.400 C 221.600 240.840,221.420 241.200,221.200 241.200 C 220.980 241.200,220.800 240.840,220.800 240.400 C 220.800 239.960,220.980 239.600,221.200 239.600 C 221.420 239.600,221.600 239.960,221.600 240.400 M171.137 245.044 C 171.293 249.261,170.747 251.537,170.198 248.958 C 169.515 245.754,168.324 244.424,165.028 243.190 C 163.888 242.763,163.362 242.314,163.272 241.690 C 163.083 240.372,164.438 240.542,165.737 242.000 C 167.361 243.823,169.312 243.422,169.808 241.164 C 170.329 238.790,170.975 240.675,171.137 245.044 M209.916 243.940 C 210.037 247.869,209.735 248.800,208.341 248.800 C 207.215 248.800,206.700 247.004,206.898 243.766 C 207.105 240.389,207.341 239.915,208.738 240.077 C 209.793 240.199,209.801 240.223,209.916 243.940 M234.000 247.400 C 234.000 247.730,234.180 248.000,234.400 248.000 C 234.620 248.000,234.800 247.730,234.800 247.400 C 234.800 247.070,234.620 246.800,234.400 246.800 C 234.180 246.800,234.000 247.070,234.000 247.400 M219.680 262.880 C 219.388 263.172,219.200 264.589,219.200 266.493 C 219.200 270.068,219.814 270.853,221.217 269.069 C 221.659 268.507,222.421 267.925,222.910 267.776 C 225.344 267.035,225.985 264.676,224.146 263.229 C 222.974 262.307,220.450 262.110,219.680 262.880 M229.849 263.416 C 229.339 264.746,229.579 269.485,230.182 269.985 C 231.163 270.799,231.602 270.059,231.553 267.676 C 231.472 263.805,230.568 261.543,229.849 263.416 M122.312 264.900 C 122.054 267.453,122.416 269.920,123.085 270.177 C 124.091 270.563,124.497 269.970,123.773 269.171 C 123.158 268.491,123.152 268.333,123.706 267.487 C 124.146 266.815,124.206 266.354,123.919 265.841 C 123.700 265.449,123.603 264.695,123.705 264.164 C 123.843 263.441,123.713 263.200,123.187 263.200 C 122.654 263.200,122.443 263.611,122.312 264.900 M247.459 264.437 C 246.944 265.173,246.947 265.496,247.490 267.137 C 248.288 269.549,248.800 270.097,248.800 268.540 C 248.800 267.869,248.999 266.749,249.242 266.051 C 249.952 264.014,248.608 262.797,247.459 264.437 M255.973 264.451 C 255.639 265.075,255.635 265.558,255.959 266.269 C 256.201 266.802,256.407 267.634,256.417 268.119 C 256.426 268.638,256.727 268.179,257.148 267.000 C 258.172 264.136,257.232 262.098,255.973 264.451 M223.200 265.055 C 223.200 265.809,222.062 266.222,221.510 265.670 C 221.195 265.355,221.211 265.069,221.566 264.641 C 222.138 263.952,223.200 264.222,223.200 265.055 M159.000 264.803 C 158.142 265.123,156.948 268.367,157.327 269.353 C 157.571 269.991,160.394 270.368,161.596 269.923 C 162.234 269.687,162.400 269.263,162.400 267.875 C 162.400 265.543,160.827 264.122,159.000 264.803 M176.800 264.700 C 175.475 264.939,175.213 265.434,175.206 267.713 C 175.197 270.558,176.615 270.998,177.163 268.320 C 177.527 266.539,178.541 266.585,178.800 268.395 C 179.034 270.026,180.178 270.529,180.604 269.188 C 181.488 266.401,179.615 264.191,176.800 264.700 M149.817 265.172 C 149.691 265.377,149.770 265.658,149.993 265.796 C 150.217 265.934,150.400 266.386,150.400 266.800 C 150.400 267.800,151.095 268.185,151.818 267.585 C 152.595 266.940,152.553 266.553,151.600 265.600 C 150.727 264.727,150.174 264.595,149.817 265.172 M167.169 265.658 C 166.741 266.458,166.866 269.399,167.349 269.882 C 167.821 270.355,168.801 269.572,168.814 268.713 C 168.822 268.211,169.086 267.350,169.400 266.800 C 170.271 265.277,170.131 264.800,168.814 264.800 C 168.011 264.800,167.480 265.077,167.169 265.658 M192.480 265.280 C 191.743 266.017,191.863 269.173,192.640 269.471 C 193.395 269.760,193.985 268.975,193.994 267.671 C 194.003 266.324,195.362 266.682,195.524 268.074 C 195.709 269.673,196.626 270.272,197.212 269.177 C 198.709 266.381,194.689 263.071,192.480 265.280 M202.671 265.700 C 201.188 268.139,202.236 272.395,204.042 271.267 C 204.590 270.924,205.043 270.902,205.581 271.190 C 206.750 271.815,207.718 270.698,207.129 269.404 C 206.799 268.680,206.815 268.131,207.190 267.225 C 208.203 264.779,204.078 263.387,202.671 265.700 M237.894 265.100 C 236.180 268.466,236.662 270.257,239.234 270.084 C 241.980 269.899,242.943 267.924,241.377 265.689 C 240.765 264.815,238.256 264.390,237.894 265.100 M185.443 265.833 C 184.683 267.813,185.560 270.463,186.670 269.542 C 187.633 268.743,187.249 265.200,186.200 265.200 C 185.917 265.200,185.576 265.485,185.443 265.833 M274.080 265.680 C 273.531 266.229,273.459 267.558,273.936 268.310 C 274.155 268.655,274.408 268.335,274.720 267.320 C 275.209 265.728,274.878 264.882,274.080 265.680 M282.014 265.784 C 281.705 266.156,281.633 266.841,281.816 267.672 L 282.102 268.977 282.551 267.593 C 283.170 265.685,284.197 265.581,284.840 267.361 L 285.349 268.767 286.012 267.284 C 286.475 266.245,286.543 265.712,286.237 265.506 C 285.456 264.981,282.520 265.174,282.014 265.784 M287.429 265.553 C 287.296 265.768,287.383 266.066,287.622 266.213 C 287.861 266.361,288.212 266.868,288.403 267.341 C 288.730 268.152,288.751 268.141,288.775 267.149 C 288.802 266.019,287.844 264.882,287.429 265.553 M148.300 266.046 C 147.438 266.531,147.371 268.512,148.193 269.194 C 148.684 269.602,148.853 269.514,149.169 268.682 C 149.739 267.184,149.197 265.542,148.300 266.046 M221.000 267.200 C 221.000 267.493,220.775 267.808,220.500 267.900 C 220.203 267.999,220.000 267.716,220.000 267.200 C 220.000 266.684,220.203 266.401,220.500 266.500 C 220.775 266.592,221.000 266.907,221.000 267.200 M267.206 267.876 C 267.211 269.007,267.312 269.245,267.600 268.800 C 268.106 268.018,268.106 266.912,267.600 266.600 C 267.360 266.452,267.202 266.961,267.206 267.876 M161.280 268.080 C 160.907 268.453,160.800 268.347,160.800 267.600 C 160.800 266.853,160.907 266.747,161.280 267.120 C 161.653 267.493,161.653 267.707,161.280 268.080 M240.880 268.080 C 240.507 268.453,240.400 268.347,240.400 267.600 C 240.400 266.853,240.507 266.747,240.880 267.120 C 241.253 267.493,241.253 267.707,240.880 268.080 M204.785 268.182 C 205.439 268.970,204.972 269.600,203.734 269.600 C 202.969 269.600,202.775 269.442,202.957 268.967 C 203.091 268.619,203.200 268.169,203.200 267.967 C 203.200 267.394,204.249 267.536,204.785 268.182 " stroke="none" fill="#928fa3" fill-rule="evenodd"></path><path id="path5" d="M171.747 67.793 C 171.164 69.314,171.208 69.343,187.200 77.792 C 198.015 83.506,202.362 86.050,202.602 86.806 C 203.019 88.120,195.916 110.445,194.460 112.399 C 193.695 113.425,190.723 113.811,174.400 115.003 C 159.240 116.110,153.058 123.164,151.792 140.800 C 151.658 142.670,151.304 146.090,151.006 148.400 C 149.766 158.002,149.540 160.022,149.199 164.600 C 149.003 167.240,148.657 170.300,148.432 171.400 C 147.778 174.589,147.297 184.334,147.638 187.493 C 148.724 197.567,152.865 199.615,172.600 199.837 C 192.525 200.062,196.133 200.485,200.349 203.089 C 202.919 204.676,203.181 205.458,203.600 212.801 C 203.802 216.333,204.057 219.369,204.168 219.548 C 204.701 220.410,203.182 233.134,202.394 234.410 C 201.881 235.240,196.707 235.744,196.168 235.016 C 195.930 234.695,195.513 231.644,195.241 228.235 C 194.003 212.733,193.016 210.596,186.532 209.378 C 185.029 209.096,181.835 208.490,179.432 208.032 C 172.177 206.650,155.874 207.480,152.974 209.381 C 149.390 211.729,147.840 220.232,148.448 234.200 C 148.668 239.240,148.587 240.812,147.946 244.027 C 146.903 249.253,147.171 255.782,148.608 260.186 L 149.619 263.282 148.209 264.842 C 145.834 267.472,146.678 270.808,149.716 270.794 C 151.336 270.786,151.845 270.459,152.365 269.092 C 152.964 267.516,154.856 267.567,156.057 269.192 C 157.314 270.892,159.129 271.397,161.971 270.838 C 163.871 270.464,164.564 270.495,166.031 271.018 C 167.286 271.465,168.323 271.561,169.600 271.348 C 170.590 271.183,173.470 271.019,176.000 270.985 C 178.808 270.946,181.093 270.713,181.867 270.386 C 182.930 269.936,183.402 269.939,184.814 270.405 C 186.311 270.899,186.626 270.885,187.680 270.280 C 189.104 269.463,190.079 269.424,191.520 270.127 C 192.641 270.674,196.893 270.708,198.927 270.186 C 199.853 269.948,200.283 270.112,201.327 271.097 C 203.459 273.110,206.504 273.094,208.271 271.063 C 209.332 269.843,216.746 269.231,218.298 270.235 C 219.007 270.693,220.006 270.760,223.014 270.548 C 225.609 270.366,227.515 270.444,228.966 270.792 C 230.828 271.239,231.328 271.217,232.877 270.626 C 234.541 269.990,234.758 269.990,236.330 270.619 C 238.675 271.557,241.266 271.140,242.489 269.627 C 244.382 267.285,246.333 267.108,247.200 269.200 C 247.467 269.845,248.040 270.486,248.473 270.623 C 250.042 271.121,249.973 271.889,250.006 253.400 C 250.018 246.650,250.245 241.069,250.654 237.498 C 251.180 232.903,251.252 222.542,250.786 218.600 C 250.639 217.359,251.717 208.243,252.246 206.249 C 254.671 197.110,240.599 179.564,235.525 185.400 C 234.421 186.670,233.430 186.665,231.907 185.383 C 230.734 184.396,223.857 184.191,219.742 185.021 C 219.270 185.116,218.132 184.929,217.213 184.604 C 216.293 184.280,212.464 183.262,208.703 182.342 C 203.189 180.992,201.627 180.455,200.633 179.564 L 199.400 178.459 199.379 167.730 C 199.368 161.828,199.206 154.098,199.019 150.551 C 198.635 143.268,199.170 141.057,201.621 139.789 C 205.794 137.631,208.042 140.928,207.219 148.002 C 206.596 153.366,207.040 169.279,207.859 170.893 C 209.967 175.049,230.711 176.914,231.125 172.986 C 231.352 170.833,233.767 169.933,234.242 171.824 C 234.410 172.495,234.696 172.772,235.071 172.628 C 235.386 172.507,236.159 172.789,236.788 173.255 C 238.050 174.188,240.324 174.329,245.400 173.792 C 249.109 173.399,249.594 173.112,249.628 171.286 C 249.644 170.469,249.799 169.440,249.973 169.000 C 250.482 167.714,250.027 167.200,248.381 167.200 C 247.537 167.200,246.744 167.033,246.618 166.829 C 246.289 166.297,247.749 165.922,248.962 166.226 C 249.708 166.413,250.061 166.307,250.239 165.842 C 250.585 164.940,250.086 163.200,249.481 163.200 C 249.205 163.200,248.566 162.912,248.063 162.559 L 247.148 161.918 248.614 160.459 C 249.989 159.092,250.067 158.881,249.860 157.109 C 249.702 155.750,249.804 155.053,250.222 154.635 C 250.542 154.315,250.789 153.456,250.772 152.727 C 250.754 151.997,250.928 150.424,251.157 149.232 C 251.446 147.728,251.446 146.564,251.156 145.432 C 250.673 143.542,250.632 143.126,250.729 141.114 C 250.836 138.879,251.552 138.662,259.800 138.359 C 271.977 137.912,271.441 138.339,274.222 126.862 C 276.074 119.217,278.526 110.366,279.009 109.586 C 279.304 109.107,289.591 109.080,290.342 109.555 C 290.892 109.904,290.309 114.270,289.134 118.600 C 288.699 120.203,287.750 126.050,287.315 129.800 C 287.143 131.283,286.737 132.206,285.742 133.372 C 284.576 134.738,284.400 135.230,284.400 137.123 C 284.400 139.292,284.388 139.312,281.761 141.765 C 278.303 144.993,278.227 146.249,281.500 146.113 C 283.571 146.027,283.600 146.042,283.600 147.187 C 283.600 150.460,285.437 151.395,286.994 148.915 C 287.977 147.348,288.467 147.305,290.205 148.631 C 293.122 150.856,294.554 148.957,292.442 145.665 C 290.246 142.244,289.904 140.718,290.852 138.575 C 291.571 136.951,291.610 136.511,291.195 134.777 C 290.704 132.732,290.866 131.108,292.290 123.800 C 292.633 122.040,293.062 119.700,293.243 118.600 C 294.829 108.982,294.005 109.763,301.716 110.560 C 318.697 112.314,319.343 111.345,306.247 103.759 C 301.821 101.195,296.580 98.102,294.600 96.884 C 289.220 93.577,277.247 86.704,268.000 81.613 C 263.490 79.131,257.428 75.759,254.530 74.121 L 249.260 71.142 242.130 70.582 C 225.236 69.254,212.092 68.491,197.800 68.008 C 191.200 67.785,182.700 67.485,178.911 67.340 C 172.522 67.096,172.002 67.129,171.747 67.793 M182.800 67.998 C 187.310 68.207,196.490 68.563,203.200 68.790 C 209.910 69.017,219.090 69.469,223.600 69.796 C 228.110 70.122,235.573 70.658,240.185 70.986 C 247.426 71.501,248.817 71.708,250.385 72.504 C 256.610 75.668,285.011 91.743,295.600 98.097 C 298.350 99.747,303.660 102.878,307.400 105.054 C 317.308 110.820,316.867 111.453,303.800 110.227 C 300.060 109.877,296.415 109.513,295.701 109.420 C 294.123 109.214,293.608 109.956,293.582 112.474 C 293.573 113.423,293.289 114.920,292.952 115.800 C 292.615 116.680,292.360 118.149,292.386 119.064 C 292.412 119.978,292.066 121.818,291.617 123.151 C 291.167 124.484,290.800 126.486,290.800 127.600 C 290.800 128.714,290.533 130.264,290.208 131.044 C 289.684 132.296,289.684 132.627,290.208 133.880 C 291.026 135.838,290.949 137.703,290.000 138.909 C 288.912 140.293,289.662 142.897,292.185 146.500 C 293.803 148.810,292.252 149.549,289.829 147.623 C 288.088 146.240,287.566 146.342,286.659 148.246 C 285.653 150.355,284.635 149.959,284.476 147.396 C 284.320 144.877,284.071 144.644,282.324 145.374 C 278.997 146.764,279.006 145.205,282.344 142.070 C 285.265 139.327,285.286 139.293,285.015 137.689 C 284.701 135.828,285.321 134.321,286.998 132.871 C 287.786 132.190,288.011 131.699,287.843 131.029 C 287.717 130.526,287.858 129.144,288.157 127.958 C 288.456 126.771,288.811 124.670,288.945 123.290 C 289.080 121.909,289.462 120.253,289.795 119.610 C 290.128 118.966,290.400 117.615,290.400 116.607 C 290.400 115.599,290.670 114.128,291.000 113.338 C 292.678 109.323,291.847 108.689,284.814 108.623 C 277.643 108.556,278.398 107.332,273.664 126.706 C 270.876 138.121,271.900 137.394,258.000 137.826 C 236.076 138.507,211.743 130.052,196.817 116.567 C 194.691 114.647,194.705 114.475,197.775 105.407 C 201.237 95.183,203.200 88.596,203.200 87.206 C 203.200 85.703,200.357 83.992,181.600 74.209 C 172.798 69.618,172.161 69.199,172.533 68.231 C 172.814 67.497,172.266 67.509,182.800 67.998 M249.508 151.925 C 249.595 152.186,249.382 152.400,249.033 152.400 C 248.685 152.400,248.400 152.115,248.400 151.767 C 248.400 151.060,249.261 151.183,249.508 151.925 M245.600 162.733 C 245.600 163.254,245.124 163.601,244.738 163.361 C 244.324 163.106,244.681 162.400,245.224 162.400 C 245.431 162.400,245.600 162.550,245.600 162.733 M154.000 166.824 C 154.000 167.277,153.820 167.536,153.600 167.400 C 153.380 167.264,153.200 166.893,153.200 166.576 C 153.200 166.259,153.380 166.000,153.600 166.000 C 153.820 166.000,154.000 166.371,154.000 166.824 M222.400 215.600 C 222.400 216.044,222.133 216.400,221.800 216.400 C 221.470 216.400,221.200 216.325,221.200 216.233 C 221.200 216.141,221.091 215.781,220.957 215.433 C 220.783 214.979,220.953 214.800,221.557 214.800 C 222.133 214.800,222.400 215.053,222.400 215.600 M225.509 218.347 L 226.752 219.894 225.934 221.547 C 224.708 224.025,223.808 223.796,223.992 221.055 C 224.042 220.318,223.915 220.005,223.635 220.178 C 223.396 220.326,223.200 220.267,223.200 220.047 C 223.200 219.827,223.380 219.536,223.600 219.400 C 223.820 219.264,224.000 218.623,224.000 217.976 C 224.000 216.487,224.018 216.492,225.509 218.347 M183.300 236.048 C 184.437 235.970,187.721 235.939,189.300 235.991 C 189.795 236.008,190.968 235.907,191.908 235.768 C 194.024 235.454,194.481 235.803,196.110 238.976 C 197.001 240.712,197.400 241.186,197.517 240.647 C 197.606 240.234,197.452 239.470,197.174 238.951 C 196.160 237.057,197.205 235.939,199.859 236.080 C 202.612 236.226,203.220 236.882,202.487 238.911 C 202.195 239.717,202.000 242.415,202.000 245.639 C 202.000 251.686,201.633 252.800,199.639 252.800 C 198.365 252.800,197.645 252.111,196.398 249.700 C 195.558 248.075,194.384 247.227,195.014 248.700 C 196.357 251.840,195.566 252.864,191.829 252.819 C 190.273 252.800,186.799 252.864,184.109 252.961 L 179.218 253.137 178.235 251.969 C 177.011 250.514,176.765 250.515,175.933 251.978 C 174.661 254.214,170.400 253.858,170.400 251.516 C 170.400 250.667,170.378 250.670,169.300 251.676 C 167.677 253.190,166.915 253.466,163.541 253.760 C 159.661 254.097,159.200 253.739,159.200 250.386 C 159.200 247.044,161.442 245.931,163.200 248.400 C 164.237 249.856,165.721 250.053,165.528 248.710 C 165.439 248.090,164.911 247.634,163.793 247.210 C 158.447 245.182,156.988 239.454,161.238 237.179 C 162.441 236.536,168.316 236.232,168.975 236.780 C 169.349 237.090,169.812 237.042,170.646 236.607 C 173.812 234.956,176.669 236.593,175.631 239.464 C 174.576 242.384,175.508 241.827,176.921 238.694 C 178.060 236.168,179.072 235.468,181.000 235.872 C 181.660 236.010,182.695 236.089,183.300 236.048 M210.023 236.000 C 214.870 237.346,215.914 249.250,211.432 252.069 C 207.055 254.823,202.790 251.284,202.810 244.913 C 202.831 237.917,205.418 234.720,210.023 236.000 M220.159 236.157 C 220.978 236.499,221.706 236.579,222.046 236.363 C 222.811 235.878,225.887 235.911,226.826 236.414 C 227.878 236.977,227.812 238.632,226.684 239.973 C 226.089 240.680,225.310 242.872,224.459 246.231 C 222.724 253.081,221.492 254.634,219.429 252.572 C 218.710 251.853,218.712 251.860,217.449 245.282 C 216.766 241.720,216.270 240.113,215.653 239.456 C 213.186 236.830,216.305 234.547,220.159 236.157 M235.617 236.809 C 236.785 237.434,237.039 238.185,237.984 243.800 C 238.492 246.816,239.152 249.420,239.557 250.000 C 241.935 253.411,238.795 255.750,235.527 253.000 C 234.089 251.790,233.983 251.784,232.661 252.823 C 229.863 255.024,226.130 252.583,228.499 250.102 C 229.613 248.934,231.994 241.419,232.006 239.031 C 232.017 236.794,233.679 235.772,235.617 236.809 M188.814 239.574 C 188.144 240.826,188.287 248.101,189.000 249.024 C 190.130 250.486,190.800 248.822,190.800 244.550 C 190.800 239.606,189.944 237.462,188.814 239.574 M181.728 239.676 C 178.199 241.382,179.210 249.046,183.000 249.315 L 184.200 249.400 184.314 244.857 C 184.451 239.339,184.057 238.550,181.728 239.676 M220.800 240.400 C 220.800 240.840,220.980 241.200,221.200 241.200 C 221.420 241.200,221.600 240.840,221.600 240.400 C 221.600 239.960,221.420 239.600,221.200 239.600 C 220.980 239.600,220.800 239.960,220.800 240.400 M169.808 241.164 C 169.312 243.422,167.361 243.823,165.737 242.000 C 164.438 240.542,163.083 240.372,163.272 241.690 C 163.362 242.314,163.888 242.763,165.028 243.190 C 168.324 244.424,169.515 245.754,170.198 248.958 C 170.747 251.537,171.293 249.261,171.137 245.044 C 170.975 240.675,170.329 238.790,169.808 241.164 M207.373 240.443 C 206.185 242.366,206.930 248.800,208.341 248.800 C 210.442 248.800,210.828 240.319,208.738 240.077 C 208.154 240.009,207.540 240.174,207.373 240.443 M122.229 262.629 C 121.305 263.552,121.331 269.679,122.262 270.451 C 123.042 271.098,126.243 271.117,126.882 270.478 C 127.459 269.901,126.601 268.800,125.575 268.800 C 124.395 268.800,124.267 268.031,125.376 267.609 C 126.601 267.143,126.707 266.192,125.600 265.600 C 124.522 265.023,124.593 264.539,125.800 264.236 C 126.934 263.951,127.177 262.630,126.167 262.243 C 124.986 261.789,122.860 261.998,122.229 262.629 M140.014 263.174 C 138.719 265.593,140.023 271.337,141.720 270.686 C 142.270 270.475,142.329 269.927,142.128 266.919 C 141.841 262.656,141.046 261.246,140.014 263.174 M224.146 263.229 C 225.985 264.676,225.344 267.035,222.910 267.776 C 222.421 267.925,221.659 268.507,221.217 269.069 C 219.814 270.853,219.200 270.068,219.200 266.493 C 219.200 262.310,221.254 260.954,224.146 263.229 M255.609 263.674 C 255.163 264.403,254.908 265.270,255.041 265.600 C 255.174 265.930,255.400 267.100,255.542 268.200 C 255.837 270.488,257.134 271.101,257.655 269.200 C 259.226 263.471,257.909 259.913,255.609 263.674 M231.253 264.233 C 231.672 266.171,231.628 269.935,231.182 270.211 C 229.908 270.998,228.904 265.880,229.849 263.416 C 230.216 262.460,230.963 262.895,231.253 264.233 M123.705 264.164 C 123.603 264.695,123.700 265.449,123.919 265.841 C 124.206 266.354,124.146 266.815,123.706 267.487 C 123.152 268.333,123.158 268.491,123.773 269.171 C 124.497 269.970,124.091 270.563,123.085 270.177 C 121.843 269.701,121.937 263.200,123.187 263.200 C 123.713 263.200,123.843 263.441,123.705 264.164 M249.193 264.192 C 249.565 264.640,249.577 265.091,249.242 266.051 C 248.999 266.749,248.800 267.869,248.800 268.540 C 248.800 270.097,248.288 269.549,247.490 267.137 C 246.653 264.608,247.838 262.559,249.193 264.192 M257.685 264.300 C 257.783 264.685,257.541 265.900,257.148 267.000 C 256.727 268.179,256.426 268.638,256.417 268.119 C 256.407 267.634,256.201 266.802,255.959 266.269 C 255.635 265.558,255.639 265.075,255.973 264.451 C 256.524 263.420,257.440 263.340,257.685 264.300 M221.566 264.641 C 221.211 265.069,221.195 265.355,221.510 265.670 C 222.062 266.222,223.200 265.809,223.200 265.055 C 223.200 264.222,222.138 263.952,221.566 264.641 M161.700 265.523 C 162.745 266.421,162.672 269.525,161.596 269.923 C 158.609 271.028,156.848 269.698,157.656 266.949 C 158.395 264.439,159.843 263.928,161.700 265.523 M179.889 265.289 C 180.529 265.800,180.950 268.098,180.604 269.188 C 180.178 270.529,179.034 270.026,178.800 268.395 C 178.541 266.585,177.527 266.539,177.163 268.320 C 176.615 270.998,175.197 270.558,175.206 267.713 C 175.216 264.655,177.571 263.436,179.889 265.289 M263.670 265.326 C 262.533 266.536,262.498 268.898,263.600 270.000 C 265.465 271.865,268.800 270.440,268.800 267.779 C 268.800 264.822,265.587 263.285,263.670 265.326 M273.358 265.408 C 272.653 266.484,272.765 269.325,273.542 270.102 C 274.230 270.790,275.200 270.096,275.203 268.913 C 275.204 268.301,275.556 267.268,275.984 266.619 C 276.556 265.751,276.649 265.300,276.332 264.919 C 275.617 264.057,274.077 264.311,273.358 265.408 M281.630 264.964 C 280.425 266.415,280.851 270.400,282.209 270.400 C 282.555 270.400,283.075 269.838,283.364 269.151 L 283.889 267.902 284.156 268.968 C 284.638 270.888,286.779 270.632,286.816 268.651 C 286.828 267.983,286.953 268.079,287.396 269.100 C 287.986 270.457,288.705 270.735,289.520 269.920 C 290.483 268.957,289.909 265.553,288.640 264.706 C 287.805 264.149,282.133 264.358,281.630 264.964 M151.600 265.600 C 152.553 266.553,152.595 266.940,151.818 267.585 C 151.095 268.185,150.400 267.800,150.400 266.800 C 150.400 266.386,150.217 265.934,149.993 265.796 C 149.537 265.514,149.845 264.800,150.424 264.800 C 150.631 264.800,151.160 265.160,151.600 265.600 M169.986 265.300 C 169.978 265.575,169.714 266.250,169.400 266.800 C 169.086 267.350,168.822 268.211,168.814 268.713 C 168.801 269.572,167.821 270.355,167.349 269.882 C 166.866 269.399,166.741 266.458,167.169 265.658 C 167.678 264.707,170.011 264.410,169.986 265.300 M196.749 265.338 C 197.986 266.829,197.487 270.668,196.196 269.597 C 195.894 269.346,195.592 268.661,195.524 268.074 C 195.362 266.682,194.003 266.324,193.994 267.671 C 193.985 268.975,193.395 269.760,192.640 269.471 C 191.863 269.173,191.743 266.017,192.480 265.280 C 193.131 264.629,196.195 264.671,196.749 265.338 M207.458 265.407 C 207.586 265.741,207.465 266.559,207.190 267.225 C 206.815 268.131,206.799 268.680,207.129 269.404 C 207.718 270.698,206.750 271.815,205.581 271.190 C 205.043 270.902,204.590 270.924,204.042 271.267 C 202.236 272.395,201.188 268.139,202.671 265.700 C 203.350 264.583,207.055 264.357,207.458 265.407 M241.377 265.689 C 242.943 267.924,241.980 269.899,239.234 270.084 C 236.662 270.257,236.180 268.466,237.894 265.100 C 238.256 264.390,240.765 264.815,241.377 265.689 M186.957 265.833 C 187.726 267.836,186.759 270.599,185.670 269.510 C 184.768 268.608,185.187 265.200,186.200 265.200 C 186.483 265.200,186.824 265.485,186.957 265.833 M274.720 267.320 C 274.408 268.335,274.155 268.655,273.936 268.310 C 273.459 267.558,273.531 266.229,274.080 265.680 C 274.878 264.882,275.209 265.728,274.720 267.320 M286.237 265.506 C 286.543 265.712,286.475 266.245,286.012 267.284 L 285.349 268.767 284.840 267.361 C 284.197 265.581,283.170 265.685,282.551 267.593 L 282.102 268.977 281.816 267.672 C 281.360 265.599,284.261 264.178,286.237 265.506 M288.775 267.149 C 288.751 268.141,288.730 268.152,288.403 267.341 C 288.212 266.868,287.861 266.361,287.622 266.213 C 287.383 266.066,287.296 265.768,287.429 265.553 C 287.844 264.882,288.802 266.019,288.775 267.149 M149.169 268.682 C 148.853 269.514,148.684 269.602,148.193 269.194 C 147.371 268.512,147.438 266.531,148.300 266.046 C 149.197 265.542,149.739 267.184,149.169 268.682 M267.994 267.524 C 267.991 267.896,267.813 268.470,267.600 268.800 C 267.312 269.245,267.211 269.007,267.206 267.876 C 267.202 266.961,267.360 266.452,267.600 266.600 C 267.820 266.736,267.997 267.152,267.994 267.524 M133.067 267.067 C 132.459 267.674,132.859 268.400,133.800 268.400 C 134.533 268.400,134.800 268.187,134.800 267.600 C 134.800 266.820,133.663 266.470,133.067 267.067 M266.400 267.824 C 266.400 268.141,266.130 268.400,265.800 268.400 C 265.198 268.400,264.978 267.556,265.456 267.078 C 265.829 266.704,266.400 267.155,266.400 267.824 " stroke="none" fill="#c5abbb" fill-rule="evenodd"></path></g></svg>